<svg width="24" height="24" viewBox="0 0 24 24" fill="none" xmlns="http://www.w3.org/2000/svg">
<g clip-path="url(#clip0_1565_21112)">
<path fill-rule="evenodd" clip-rule="evenodd" d="M12 24C18.6274 24 24 18.6274 24 12C24 5.37258 18.6274 0 12 0C5.37258 0 0 5.37258 0 12C0 18.6274 5.37258 24 12 24Z" fill="#079CDC"/>
<path fill-rule="evenodd" clip-rule="evenodd" d="M14.3221 6.4978C13.5514 5.91677 10.933 4.07684 5.36531 5.28732C5.36531 5.28732 6.33359 5.77151 6.57567 6.2557C6.57567 6.2557 3.42871 8.32256 3.42871 12.7922C3.42871 16.1182 5.32546 18.8696 8.42052 20.0161C11.5156 21.1625 15.3505 20.36 16.9405 19.232C18.0839 18.4207 20.5716 16.1182 20.5716 12.5502C20.5716 8.67662 18.4374 5.77151 17.9532 5.28732C17.9532 5.28732 19.4056 10.1683 17.9532 13.1375C16.5007 16.1068 14.8062 16.4237 14.8062 16.4237C14.8062 16.4237 15.7301 17.3921 16.5007 17.6342C16.5007 17.6342 12.3855 20.2972 7.78603 17.3921C7.78603 17.3921 7.49955 13.1797 10.1623 10.7587C10.1623 10.7587 10.8886 11.2429 11.3727 12.2113C11.3727 12.2915 13.8602 10.7587 14.3221 6.4978Z" fill="white"/>
</g>
<defs>
<clipPath id="clip0_1565_21112">
<rect width="24" height="24" fill="white"/>
</clipPath>
</defs>
</svg>
